<svg viewBox="0 0 2000 1000" xmlns="http://www.w3.org/2000/svg"><mask id="b" x="0" y="0" width="2000" height="1000"><path fill="url(#a)" d="M0 0h2000v1000H0z"/></mask><g style="transform-origin:center center" stroke="#fff" fill="none" mask="url(#b)"><path d="M0 0h67v67H0zM67 0h67v67H67zM134 0h67v67h-67zM201 0h67v67h-67zM268 0h67v67h-67zM335 0h67v67h-67zM402 0h67v67h-67zM469 0h67v67h-67zM536 0h67v67h-67zM603 0h67v67h-67zM670 0h67v67h-67zM737 0h67v67h-67zM804 0h67v67h-67zM871 0h67v67h-67zM938 0h67v67h-67zM1005 0h67v67h-67zM1072 0h67v67h-67zM1139 0h67v67h-67zM1206 0h67v67h-67zM1273 0h67v67h-67zM1340 0h67v67h-67zM1407 0h67v67h-67zM1474 0h67v67h-67zM1541 0h67v67h-67zM1608 0h67v67h-67zM1675 0h67v67h-67zM1742 0h67v67h-67zM1809 0h67v67h-67zM1876 0h67v67h-67zM1943 0h67v67h-67zM0 67h67v67H0zM67 67h67v67H67zM134 67h67v67h-67zM201 67h67v67h-67zM268 67h67v67h-67zM335 67h67v67h-67zM402 67h67v67h-67zM469 67h67v67h-67zM536 67h67v67h-67zM603 67h67v67h-67zM670 67h67v67h-67zM737 67h67v67h-67zM804 67h67v67h-67zM871 67h67v67h-67zM938 67h67v67h-67zM1005 67h67v67h-67zM1072 67h67v67h-67zM1139 67h67v67h-67zM1206 67h67v67h-67zM1273 67h67v67h-67zM1340 67h67v67h-67zM1407 67h67v67h-67zM1474 67h67v67h-67zM1541 67h67v67h-67zM1608 67h67v67h-67zM1675 67h67v67h-67zM1742 67h67v67h-67zM1809 67h67v67h-67zM1876 67h67v67h-67zM1943 67h67v67h-67zM0 134h67v67H0zM67 134h67v67H67zM134 134h67v67h-67zM201 134h67v67h-67zM268 134h67v67h-67zM335 134h67v67h-67zM402 134h67v67h-67zM469 134h67v67h-67zM536 134h67v67h-67zM603 134h67v67h-67zM670 134h67v67h-67zM737 134h67v67h-67zM804 134h67v67h-67zM871 134h67v67h-67zM938 134h67v67h-67zM1005 134h67v67h-67zM1072 134h67v67h-67zM1139 134h67v67h-67zM1206 134h67v67h-67zM1273 134h67v67h-67zM1340 134h67v67h-67zM1407 134h67v67h-67zM1474 134h67v67h-67zM1541 134h67v67h-67zM1608 134h67v67h-67zM1675 134h67v67h-67zM1742 134h67v67h-67zM1809 134h67v67h-67zM1876 134h67v67h-67zM1943 134h67v67h-67zM0 201h67v67H0zM67 201h67v67H67zM134 201h67v67h-67zM201 201h67v67h-67zM268 201h67v67h-67zM335 201h67v67h-67zM402 201h67v67h-67zM469 201h67v67h-67zM536 201h67v67h-67zM603 201h67v67h-67zM670 201h67v67h-67zM737 201h67v67h-67zM804 201h67v67h-67zM871 201h67v67h-67zM938 201h67v67h-67zM1005 201h67v67h-67zM1072 201h67v67h-67zM1139 201h67v67h-67zM1206 201h67v67h-67zM1273 201h67v67h-67zM1340 201h67v67h-67zM1407 201h67v67h-67zM1474 201h67v67h-67zM1541 201h67v67h-67zM1608 201h67v67h-67zM1675 201h67v67h-67zM1742 201h67v67h-67zM1809 201h67v67h-67zM1876 201h67v67h-67zM1943 201h67v67h-67zM0 268h67v67H0zM67 268h67v67H67zM134 268h67v67h-67zM201 268h67v67h-67zM268 268h67v67h-67zM335 268h67v67h-67zM402 268h67v67h-67zM469 268h67v67h-67zM536 268h67v67h-67zM603 268h67v67h-67zM670 268h67v67h-67zM737 268h67v67h-67zM804 268h67v67h-67zM871 268h67v67h-67zM938 268h67v67h-67zM1005 268h67v67h-67zM1072 268h67v67h-67zM1139 268h67v67h-67zM1206 268h67v67h-67zM1273 268h67v67h-67zM1340 268h67v67h-67zM1407 268h67v67h-67zM1474 268h67v67h-67zM1541 268h67v67h-67zM1608 268h67v67h-67zM1675 268h67v67h-67zM1742 268h67v67h-67zM1809 268h67v67h-67zM1876 268h67v67h-67zM1943 268h67v67h-67zM0 335h67v67H0zM67 335h67v67H67zM134 335h67v67h-67zM201 335h67v67h-67zM268 335h67v67h-67zM335 335h67v67h-67zM402 335h67v67h-67zM469 335h67v67h-67zM536 335h67v67h-67zM603 335h67v67h-67zM670 335h67v67h-67zM737 335h67v67h-67zM804 335h67v67h-67zM871 335h67v67h-67zM938 335h67v67h-67zM1005 335h67v67h-67zM1072 335h67v67h-67zM1139 335h67v67h-67zM1206 335h67v67h-67zM1273 335h67v67h-67zM1340 335h67v67h-67zM1407 335h67v67h-67zM1474 335h67v67h-67zM1541 335h67v67h-67zM1608 335h67v67h-67zM1675 335h67v67h-67zM1742 335h67v67h-67zM1809 335h67v67h-67zM1876 335h67v67h-67zM1943 335h67v67h-67zM0 402h67v67H0zM67 402h67v67H67zM134 402h67v67h-67zM201 402h67v67h-67zM268 402h67v67h-67zM335 402h67v67h-67zM402 402h67v67h-67zM469 402h67v67h-67zM536 402h67v67h-67zM603 402h67v67h-67zM670 402h67v67h-67zM737 402h67v67h-67zM804 402h67v67h-67zM871 402h67v67h-67zM938 402h67v67h-67zM1005 402h67v67h-67zM1072 402h67v67h-67zM1139 402h67v67h-67zM1206 402h67v67h-67zM1273 402h67v67h-67zM1340 402h67v67h-67zM1407 402h67v67h-67zM1474 402h67v67h-67zM1541 402h67v67h-67zM1608 402h67v67h-67zM1675 402h67v67h-67zM1742 402h67v67h-67zM1809 402h67v67h-67zM1876 402h67v67h-67zM1943 402h67v67h-67zM0 469h67v67H0zM67 469h67v67H67zM134 469h67v67h-67zM201 469h67v67h-67zM268 469h67v67h-67zM335 469h67v67h-67zM402 469h67v67h-67zM469 469h67v67h-67zM536 469h67v67h-67zM603 469h67v67h-67zM670 469h67v67h-67zM737 469h67v67h-67zM804 469h67v67h-67zM871 469h67v67h-67zM938 469h67v67h-67zM1005 469h67v67h-67zM1072 469h67v67h-67zM1139 469h67v67h-67zM1206 469h67v67h-67zM1273 469h67v67h-67zM1340 469h67v67h-67zM1407 469h67v67h-67zM1474 469h67v67h-67zM1541 469h67v67h-67zM1608 469h67v67h-67zM1675 469h67v67h-67zM1742 469h67v67h-67zM1809 469h67v67h-67zM1876 469h67v67h-67zM1943 469h67v67h-67zM0 536h67v67H0zM67 536h67v67H67zM134 536h67v67h-67zM201 536h67v67h-67zM268 536h67v67h-67zM335 536h67v67h-67zM402 536h67v67h-67zM469 536h67v67h-67zM536 536h67v67h-67zM603 536h67v67h-67zM670 536h67v67h-67zM737 536h67v67h-67zM804 536h67v67h-67zM871 536h67v67h-67zM938 536h67v67h-67zM1005 536h67v67h-67zM1072 536h67v67h-67zM1139 536h67v67h-67zM1206 536h67v67h-67zM1273 536h67v67h-67zM1340 536h67v67h-67zM1407 536h67v67h-67zM1474 536h67v67h-67zM1541 536h67v67h-67zM1608 536h67v67h-67zM1675 536h67v67h-67zM1742 536h67v67h-67zM1809 536h67v67h-67zM1876 536h67v67h-67zM1943 536h67v67h-67zM0 603h67v67H0zM67 603h67v67H67zM134 603h67v67h-67zM201 603h67v67h-67zM268 603h67v67h-67zM335 603h67v67h-67zM402 603h67v67h-67zM469 603h67v67h-67zM536 603h67v67h-67zM603 603h67v67h-67zM670 603h67v67h-67zM737 603h67v67h-67zM804 603h67v67h-67zM871 603h67v67h-67zM938 603h67v67h-67zM1005 603h67v67h-67zM1072 603h67v67h-67zM1139 603h67v67h-67zM1206 603h67v67h-67zM1273 603h67v67h-67zM1340 603h67v67h-67zM1407 603h67v67h-67zM1474 603h67v67h-67zM1541 603h67v67h-67zM1608 603h67v67h-67zM1675 603h67v67h-67zM1742 603h67v67h-67zM1809 603h67v67h-67zM1876 603h67v67h-67zM1943 603h67v67h-67zM0 670h67v67H0zM67 670h67v67H67zM134 670h67v67h-67zM201 670h67v67h-67zM268 670h67v67h-67zM335 670h67v67h-67zM402 670h67v67h-67zM469 670h67v67h-67zM536 670h67v67h-67zM603 670h67v67h-67zM670 670h67v67h-67zM737 670h67v67h-67zM804 670h67v67h-67zM871 670h67v67h-67zM938 670h67v67h-67zM1005 670h67v67h-67zM1072 670h67v67h-67zM1139 670h67v67h-67zM1206 670h67v67h-67zM1273 670h67v67h-67zM1340 670h67v67h-67zM1407 670h67v67h-67zM1474 670h67v67h-67zM1541 670h67v67h-67zM1608 670h67v67h-67zM1675 670h67v67h-67zM1742 670h67v67h-67zM1809 670h67v67h-67zM1876 670h67v67h-67zM1943 670h67v67h-67zM0 737h67v67H0zM67 737h67v67H67zM134 737h67v67h-67zM201 737h67v67h-67zM268 737h67v67h-67zM335 737h67v67h-67zM402 737h67v67h-67zM469 737h67v67h-67zM536 737h67v67h-67zM603 737h67v67h-67zM670 737h67v67h-67zM737 737h67v67h-67zM804 737h67v67h-67zM871 737h67v67h-67zM938 737h67v67h-67zM1005 737h67v67h-67zM1072 737h67v67h-67zM1139 737h67v67h-67zM1206 737h67v67h-67zM1273 737h67v67h-67zM1340 737h67v67h-67zM1407 737h67v67h-67zM1474 737h67v67h-67zM1541 737h67v67h-67zM1608 737h67v67h-67zM1675 737h67v67h-67zM1742 737h67v67h-67zM1809 737h67v67h-67zM1876 737h67v67h-67zM1943 737h67v67h-67zM0 804h67v67H0zM67 804h67v67H67zM134 804h67v67h-67zM201 804h67v67h-67zM268 804h67v67h-67zM335 804h67v67h-67zM402 804h67v67h-67zM469 804h67v67h-67zM536 804h67v67h-67zM603 804h67v67h-67zM670 804h67v67h-67zM737 804h67v67h-67zM804 804h67v67h-67zM871 804h67v67h-67zM938 804h67v67h-67zM1005 804h67v67h-67zM1072 804h67v67h-67zM1139 804h67v67h-67zM1206 804h67v67h-67zM1273 804h67v67h-67zM1340 804h67v67h-67zM1407 804h67v67h-67zM1474 804h67v67h-67zM1541 804h67v67h-67zM1608 804h67v67h-67zM1675 804h67v67h-67zM1742 804h67v67h-67zM1809 804h67v67h-67zM1876 804h67v67h-67zM1943 804h67v67h-67zM0 871h67v67H0zM67 871h67v67H67zM134 871h67v67h-67zM201 871h67v67h-67zM268 871h67v67h-67zM335 871h67v67h-67zM402 871h67v67h-67zM469 871h67v67h-67zM536 871h67v67h-67zM603 871h67v67h-67zM670 871h67v67h-67zM737 871h67v67h-67zM804 871h67v67h-67zM871 871h67v67h-67zM938 871h67v67h-67zM1005 871h67v67h-67zM1072 871h67v67h-67zM1139 871h67v67h-67zM1206 871h67v67h-67zM1273 871h67v67h-67zM1340 871h67v67h-67zM1407 871h67v67h-67zM1474 871h67v67h-67zM1541 871h67v67h-67zM1608 871h67v67h-67zM1675 871h67v67h-67zM1742 871h67v67h-67zM1809 871h67v67h-67zM1876 871h67v67h-67zM1943 871h67v67h-67zM0 938h67v67H0zM67 938h67v67H67zM134 938h67v67h-67zM201 938h67v67h-67zM268 938h67v67h-67zM335 938h67v67h-67zM402 938h67v67h-67zM469 938h67v67h-67zM536 938h67v67h-67zM603 938h67v67h-67zM670 938h67v67h-67zM737 938h67v67h-67zM804 938h67v67h-67zM871 938h67v67h-67zM938 938h67v67h-67zM1005 938h67v67h-67zM1072 938h67v67h-67zM1139 938h67v67h-67zM1206 938h67v67h-67zM1273 938h67v67h-67zM1340 938h67v67h-67zM1407 938h67v67h-67zM1474 938h67v67h-67zM1541 938h67v67h-67zM1608 938h67v67h-67zM1675 938h67v67h-67zM1742 938h67v67h-67zM1809 938h67v67h-67zM1876 938h67v67h-67zM1943 938h67v67h-67z" stroke-width="2"/></g><defs><linearGradient id="a"><stop offset="0" stop-color="#fff" stop-opacity="0.5"/><stop offset="0.3" stop-color="#fff" stop-opacity="0.05"/><stop offset="0.7" stop-color="#fff" stop-opacity="0.05"/><stop offset="1" stop-color="#fff" stop-opacity="0.5"/></linearGradient></defs></svg>