<svg width="105" height="25" viewBox="0 0 147 35" fill="none" xmlns="http://www.w3.org/2000/svg">
<path fill-rule="evenodd" clip-rule="evenodd" d="M4.74007 9.0584C4.50124 8.35469 4.54188 7.58827 4.85304 6.92775C5.1642 6.26723 5.7204 5.76672 6.39927 5.53632L14.0784 2.93015C14.7573 2.69975 15.5032 2.75834 16.1521 3.09302C16.8011 3.42771 17.2998 4.01107 17.5386 4.71478L17.9889 6.04146C18.1591 6.54295 18.1841 7.0582 18.0858 7.53834L20.8162 8.48471C21.6198 8.76323 22.3534 9.22906 22.9589 9.84529C23.5644 10.4615 24.0252 11.2113 24.3048 12.0351L27.6817 21.9852C28.1594 23.3926 28.0781 24.9254 27.4558 26.2465C26.8334 27.5675 25.7211 28.5685 24.3633 29.0293L14.1245 32.5042C12.7667 32.965 11.2748 32.8478 9.97698 32.1785C8.67915 31.5091 7.68169 30.3424 7.20403 28.935L3.82714 18.9849C3.54754 18.161 3.45683 17.2857 3.56218 16.4282C3.66753 15.5707 3.96605 14.7546 4.4341 14.0445L6.02448 11.6318C5.64234 11.3002 5.35379 10.8689 5.19032 10.3851L4.74007 9.0584ZM9.5042 11.88C9.22728 11.974 8.98942 12.1585 8.82634 12.4059L6.69033 15.646C6.45631 16.001 6.30704 16.4091 6.25437 16.8378C6.20169 17.2666 6.24705 17.7042 6.38685 18.1162L6.61198 18.7795L21.9702 13.5672L21.7451 12.9038C21.6053 12.4919 21.3749 12.117 21.0722 11.8089C20.7694 11.5008 20.4026 11.2679 20.0008 11.1286L16.334 9.85797C16.054 9.76093 15.7529 9.75927 15.476 9.85326L9.5042 11.88ZM22.8707 16.2205L7.51248 21.4328L8.41298 24.0862L23.7712 18.8739L22.8707 16.2205ZM24.6717 21.5272L9.31349 26.7396L9.76374 28.0662C10.0026 28.7699 10.5013 29.3533 11.1502 29.688C11.7991 30.0227 12.5451 30.0813 13.224 29.8509L23.4628 26.376C24.1417 26.1456 24.6979 25.6451 25.009 24.9845C25.3202 24.324 25.3608 23.5576 25.122 22.8539L24.6717 21.5272ZM15.4292 6.91018L14.9789 5.58351L7.29978 8.18968L7.75003 9.51635L15.4292 6.91018Z" fill="#FF5925"/>
<path d="M40.4827 33.742V7.92654H44.1856L44.3308 10.6307C44.9601 9.71728 45.8071 8.97214 46.872 8.39525C47.9369 7.79433 49.1954 7.49388 50.6475 7.49388C52.4384 7.49388 53.9752 7.91452 55.2579 8.75581C56.5406 9.57306 57.5329 10.6908 58.2347 12.1089C58.9366 13.5031 59.2875 15.0775 59.2875 16.8322C59.2875 18.5868 58.9366 20.1853 58.2347 21.6275C57.5329 23.0457 56.5285 24.1754 55.2216 25.0167C53.9389 25.8339 52.4142 26.2425 50.6475 26.2425C49.147 26.2425 47.8522 25.9421 46.7631 25.3412C45.6982 24.7162 44.8875 23.9591 44.3308 23.0697V33.742H40.4827ZM49.8488 22.8894C50.9621 22.8894 51.9302 22.625 52.753 22.0962C53.5759 21.5674 54.2172 20.8463 54.6771 19.9329C55.1369 19.0195 55.3668 17.9859 55.3668 16.8322C55.3668 15.6303 55.1248 14.5847 54.6408 13.6954C54.1809 12.782 53.5396 12.0729 52.7167 11.5681C51.8939 11.0633 50.9379 10.8109 49.8488 10.8109C48.7839 10.8109 47.8401 11.0754 47.0172 11.6042C46.1943 12.1089 45.5409 12.818 45.0569 13.7314C44.597 14.6208 44.3671 15.6664 44.3671 16.8682C44.3671 17.9739 44.597 18.9955 45.0569 19.9329C45.5167 20.8463 46.158 21.5674 46.9809 22.0962C47.8038 22.625 48.7597 22.8894 49.8488 22.8894Z" fill="black"/>
<path d="M71.3139 26.2425C69.5714 26.2425 67.9983 25.87 66.5946 25.1248C65.2151 24.3557 64.1139 23.262 63.291 21.8438C62.4924 20.4256 62.093 18.7551 62.093 16.8322C62.093 14.9092 62.5045 13.2507 63.3273 11.8565C64.1744 10.4624 65.2998 9.39278 66.7035 8.64764C68.1314 7.87846 69.7166 7.49388 71.4591 7.49388C73.2016 7.49388 74.7748 7.86644 76.1785 8.61158C77.5822 9.35672 78.7075 10.4264 79.5546 11.8205C80.4017 13.2146 80.8252 14.8852 80.8252 16.8322C80.8252 18.659 80.4138 20.2814 79.5909 21.6996C78.7923 23.1178 77.679 24.2355 76.2511 25.0527C74.8232 25.8459 73.1774 26.2425 71.3139 26.2425ZM71.3502 22.9255C72.4151 22.9255 73.359 22.6611 74.1818 22.1323C75.0289 21.6035 75.6944 20.8824 76.1785 19.969C76.6625 19.0315 76.9045 17.9739 76.9045 16.7961C76.9045 15.5943 76.6625 14.5487 76.1785 13.6593C75.7186 12.7459 75.0773 12.0488 74.2544 11.5681C73.4316 11.0633 72.4756 10.8109 71.3865 10.8109C70.249 10.8109 69.2689 11.0754 68.446 11.6042C67.6473 12.133 67.0302 12.8541 66.5946 13.7675C66.1831 14.6568 65.9774 15.6784 65.9774 16.8322C65.9774 18.1542 66.2194 19.2719 66.7035 20.1853C67.2117 21.0987 67.8773 21.7837 68.7001 22.2404C69.523 22.6971 70.4063 22.9255 71.3502 22.9255Z" fill="black"/>
<path d="M92.6516 26.2425C90.8849 26.2425 89.3239 25.8459 87.9686 25.0527C86.6133 24.2595 85.5484 23.1658 84.774 21.7717C83.9995 20.3535 83.6123 18.719 83.6123 16.8682C83.6123 15.0414 83.9874 13.4189 84.7377 12.0008C85.4879 10.5826 86.5407 9.47691 87.896 8.68369C89.2513 7.89048 90.8365 7.49388 92.6516 7.49388C94.8056 7.49388 96.6207 8.04672 98.097 9.15241C99.5976 10.2341 100.578 11.7604 101.038 13.7314H96.9717C96.7538 12.8421 96.2456 12.121 95.4469 11.5681C94.6725 11.0153 93.7286 10.7388 92.6153 10.7388C91.4779 10.7388 90.534 11.0273 89.7837 11.6042C89.0335 12.157 88.4647 12.9021 88.0775 13.8396C87.7145 14.753 87.533 15.7625 87.533 16.8682C87.533 18.022 87.7266 19.0676 88.1138 20.005C88.5252 20.9184 89.1061 21.6515 89.8563 22.2044C90.6308 22.7332 91.5505 22.9976 92.6153 22.9976C93.7044 22.9976 94.6362 22.7452 95.4107 22.2404C96.1851 21.7116 96.7054 20.9545 96.9717 19.969H101.038C100.747 21.2429 100.215 22.3486 99.4402 23.286C98.6658 24.2235 97.6977 24.9566 96.536 25.4854C95.3743 25.9902 94.0796 26.2425 92.6516 26.2425Z" fill="black"/>
<path d="M110.245 26.2425C109.084 26.2425 108.019 26.0382 107.051 25.6296C106.083 25.1969 105.308 24.572 104.727 23.7547C104.147 22.9375 103.856 21.952 103.856 20.7982C103.856 19.4281 104.195 18.3345 104.873 17.5172C105.574 16.6759 106.506 16.063 107.668 15.6784C108.854 15.2698 110.149 15.0655 111.552 15.0655H116.126C116.126 14.0319 115.957 13.2026 115.618 12.5777C115.279 11.9287 114.82 11.4599 114.239 11.1715C113.658 10.859 112.98 10.7028 112.206 10.7028C111.189 10.7028 110.294 10.9431 109.519 11.4239C108.769 11.8806 108.297 12.6137 108.104 13.6232H104.219C104.34 12.3253 104.776 11.2196 105.526 10.3062C106.301 9.39278 107.281 8.69571 108.467 8.21498C109.652 7.73424 110.911 7.49388 112.242 7.49388C113.985 7.49388 115.425 7.81837 116.562 8.46736C117.724 9.09232 118.583 9.96966 119.14 11.0994C119.72 12.2291 120.011 13.5151 120.011 14.9573V20.4377C120.035 21.1347 120.18 21.6515 120.446 21.988C120.737 22.3005 121.245 22.4808 121.971 22.5289V25.8099C121.003 25.8099 120.156 25.7017 119.43 25.4854C118.728 25.2691 118.147 24.9446 117.687 24.5119C117.228 24.0552 116.865 23.4783 116.598 22.7813C116.018 23.7427 115.17 24.56 114.057 25.233C112.944 25.906 111.673 26.2425 110.245 26.2425ZM111.153 23.1058C112.145 23.1058 113.017 22.8654 113.767 22.3846C114.517 21.8799 115.098 21.2309 115.509 20.4377C115.921 19.6204 116.126 18.7431 116.126 17.8056V17.7335H111.843C111.141 17.7335 110.475 17.8177 109.846 17.9859C109.241 18.1542 108.745 18.4426 108.358 18.8512C107.995 19.2358 107.813 19.7767 107.813 20.4737C107.813 21.3871 108.14 22.0602 108.793 22.4928C109.447 22.9014 110.233 23.1058 111.153 23.1058Z" fill="black"/>
<path d="M124.929 25.8099V7.92654H128.632L128.741 10.9552C129.346 9.87352 130.169 9.03223 131.209 8.43131C132.274 7.80635 133.521 7.49388 134.949 7.49388V11.496H133.896C132.177 11.496 130.895 11.9407 130.048 12.83C129.201 13.6954 128.777 15.0294 128.777 16.8322V25.8099H124.929Z" fill="black"/>
<path d="M137.981 25.8099V7.92654H141.829V25.8099H137.981Z" fill="black"/>
<path d="M146.5 1.25835V4.74165L137.981 4.78974L138 2.00037L146.5 1.25835Z" fill="#FF5925"/>
</svg>
