<svg xmlns="http://www.w3.org/2000/svg" xmlns:xlink="http://www.w3.org/1999/xlink" role="img" viewBox="0 0 500 500" xml:space="preserve"><!-- Generator: WPGraphicator version: 1.5.1 --><style type="text/css">.wpgraphicator-path-qjv7cfmkue104080ydepn path {animation-name: wpgraphicator-path-qjv7cfmkue104080ydepn;animation-delay: 0s;animation-duration: 3.99s;animation-iteration-count: infinite;animation-fill-mode: both;}@keyframes wpgraphicator-path-qjv7cfmkue104080ydepn{0% {animation-timing-function:linear;fill:#ffffff;fill-opacity:1;animation-timing-function:linear;fill:#ffffff;fill-opacity:1;}50.375939849624054% {animation-timing-function:linear;fill:rgb(255,255,255);fill-opacity:0;}100% {animation-timing-function:linear;fill:#ffffff;fill-opacity:1;animation-timing-function:linear;fill:#ffffff;fill-opacity:1;}}</style><g class="wpgraphicator-path-qjv7cfmkue104080ydepn-top" style="transform:translateY(255.02px)"><g class="wpgraphicator-path-qjv7cfmkue104080ydepn-left" style="transform:translateX(248.52px)"><g class="wpgraphicator-path-qjv7cfmkue104080ydepn-angle" style="transform:rotate(0deg)"><g class="wpgraphicator-path-qjv7cfmkue104080ydepn-scaleY" style="transform:scaleY(1.07)"><g class="wpgraphicator-path-qjv7cfmkue104080ydepn-scaleX" style="transform:scaleX(1.06)"><g class="wpgraphicator-path-qjv7cfmkue104080ydepn-skewY" style="transform:skewY(0deg)"><g class="wpgraphicator-path-qjv7cfmkue104080ydepn-skewX" style="transform:skewX(0deg)"><g class="wpgraphicator-path-qjv7cfmkue104080ydepn"><path d="M 82.71 419.41 C 87.44 401.81 90.77 383.86 92.66 365.72 C 93.09 361.14 92.52 356.53 90.97 352.2 C 89.42 347.88 86.93 343.94 83.69 340.69 C 50.53 307.44 31.25 264.88 31.25 219 C 31.25 119.25 125.13 31.5 250 31.5 C 374.88 31.5 468.75 119.22 468.75 219 C 468.75 318.78 374.88 406.5 250 406.5 C 227.96 406.56 206.01 403.7 184.72 398 C 177.29 396.02 169.39 396.84 162.53 400.31 L 166.15 407.45 C 171.25 404.87 177.13 404.25 182.65 405.73 L 250.02 414.5 L 250.01 414.5 C 378.31 414.5 476.75 324.13 476.75 219 C 476.75 113.87 378.31 23.5 250 23.5 C 121.69 23.5 23.25 113.91 23.25 219 C 23.25 267.21 43.53 311.75 78.02 346.33 C 80.43 348.76 82.28 351.68 83.44 354.9 C 84.59 358.11 85.02 361.53 84.7 364.93 C 82.54 385.6 78.48 406.02 72.55 425.94 L 68.63 439.11 L 82.02 436.01 C 126.25 425.77 153.48 413.86 166.15 407.45 L 162.53 400.31 C 151.29 406.01 127.49 416.51 89.17 426.07 C 86.27 426.79 83.29 427.51 80.22 428.22 C 81.09 425.29 81.92 422.36 82.71 419.41 Z" stroke="#0c0c0c" stroke-opacity="0" stroke-width="0" stroke-dasharray="none" stroke-dashoffset="0" stroke-linecap="butt" stroke-linejoin="miter" stroke-miterlimit="4" fill="rgb(255,255,255)" fill-opacity="1" fill-rule="nonzero" opacity="1" transform=" translate(-250, -231.31)"></path></g></g></g></g></g></g></g></g></svg>