<svg xmlns="http://www.w3.org/2000/svg" xmlns:xlink="http://www.w3.org/1999/xlink" role="img" viewBox="0 0 500 500" xml:space="preserve"><!-- Generator: WPGraphicator version: 1.5.1 --><style type="text/css">.wpgraphicator-path-j82x7e10aew33p1uw0lwc path {animation-name: wpgraphicator-path-j82x7e10aew33p1uw0lwc;animation-delay: 0s;animation-duration: 4.01s;animation-iteration-count: infinite;animation-fill-mode: both;}@keyframes wpgraphicator-path-j82x7e10aew33p1uw0lwc{0% {animation-timing-function:linear;fill:#ffffff;fill-opacity:1;animation-timing-function:linear;fill:#ffffff;fill-opacity:1;}52.36907730673317% {animation-timing-function:linear;fill:rgb(255,255,255);fill-opacity:0;}100% {animation-timing-function:linear;fill:#ffffff;fill-opacity:1;animation-timing-function:linear;fill:#ffffff;fill-opacity:1;}}</style><g class="wpgraphicator-path-j82x7e10aew33p1uw0lwc-top" style="transform:translateY(248.37px)"><g class="wpgraphicator-path-j82x7e10aew33p1uw0lwc-left" style="transform:translateX(248.52px)"><g class="wpgraphicator-path-j82x7e10aew33p1uw0lwc-angle" style="transform:rotate(0deg)"><g class="wpgraphicator-path-j82x7e10aew33p1uw0lwc-scaleY" style="transform:scaleY(1)"><g class="wpgraphicator-path-j82x7e10aew33p1uw0lwc-scaleX" style="transform:scaleX(1)"><g class="wpgraphicator-path-j82x7e10aew33p1uw0lwc-skewY" style="transform:skewY(0deg)"><g class="wpgraphicator-path-j82x7e10aew33p1uw0lwc-skewX" style="transform:skewX(0deg)"><g class="wpgraphicator-path-j82x7e10aew33p1uw0lwc"><path d="M 83.69 340.69 C 86.93 343.94 89.42 347.88 90.97 352.2 C 92.52 356.53 93.09 361.14 92.66 365.72 C 90.45 386.89 86.29 407.82 80.22 428.22 C 123.81 418.13 150.44 406.44 162.53 400.31 C 169.39 396.84 177.29 396.02 184.72 398 C 206.01 403.7 227.96 406.56 250 406.5 C 374.88 406.5 468.75 318.78 468.75 219 C 468.75 119.22 374.88 31.5 250 31.5 C 125.13 31.5 31.25 119.25 31.25 219 C 31.25 264.88 50.53 307.44 83.69 340.69 Z M 68.28 462.72 C 60.88 464.19 53.45 465.53 46 466.75 C 39.75 467.75 35 461.25 37.47 455.44 C 40.24 448.89 42.78 442.25 45.09 435.53 L 45.19 435.22 C 52.94 412.72 59.25 386.84 61.56 362.75 C 23.22 324.31 0 274 0 219 C 0 98.19 111.94 0.25 250 0.25 C 388.06 0.25 500 98.19 500 219 C 500 339.81 388.06 437.75 250 437.75 C 225.24 437.81 200.58 434.59 176.66 428.19 C 160.41 436.41 125.44 451.38 68.28 462.72 Z" stroke="#000000" stroke-opacity="1" stroke-width="0" stroke-dasharray="none" stroke-dashoffset="0" stroke-linecap="butt" stroke-linejoin="miter" stroke-miterlimit="4" fill="rgb(255,255,255)" fill-opacity="1" fill-rule="nonzero" opacity="1" transform=" translate(-250, -233.55)"></path></g></g></g></g></g></g></g></g></svg>