<svg viewBox="0 0 2000 1000" xmlns="http://www.w3.org/2000/svg"><mask id="b" x="0" y="0" width="2000" height="1000"><path fill="url(#a)" d="M0 0h2000v1000H0z"/></mask><g style="transform-origin:center center" mask="url(#b)"><path stroke="#ffffff" stroke-width="0.5" fill="none" d="m299.957 0 74.732 43.147v86.293l-74.732 43.146-74.732-43.146V43.147ZM1200.857 0l74.732 43.147v86.293l-74.732 43.146-74.732-43.146V43.147ZM1801.457 0l74.732 43.147v86.293l-74.732 43.146-74.732-43.146V43.147ZM74.732 129.44l74.732 43.146v86.293l-74.732 43.147L0 258.879v-86.293ZM375.032 129.44l74.732 43.146v86.293l-74.732 43.147-74.732-43.147v-86.293ZM525.182 129.44l74.732 43.146v86.293l-74.732 43.147-74.732-43.147v-86.293ZM975.632 129.44l74.732 43.146v86.293l-74.732 43.147-74.732-43.147v-86.293ZM1426.082 129.44l74.732 43.146v86.293l-74.732 43.147-74.732-43.147v-86.293ZM1876.532 129.44l74.732 43.146v86.293l-74.732 43.147-74.732-43.147v-86.293ZM149.807 258.88l74.732 43.146v86.293l-74.732 43.147-74.732-43.147v-86.293ZM600.257 258.88l74.732 43.146v86.293l-74.732 43.147-74.732-43.147v-86.293ZM750.407 258.88l74.732 43.146v86.293l-74.732 43.147-74.732-43.147v-86.293ZM1200.857 258.88l74.732 43.146v86.293l-74.732 43.147-74.732-43.147v-86.293ZM1351.007 258.88l74.732 43.146v86.293l-74.732 43.147-74.732-43.147v-86.293ZM1501.157 258.88l74.732 43.146v86.293l-74.732 43.147-74.732-43.147v-86.293ZM1801.457 258.88l74.732 43.146v86.293l-74.732 43.147-74.732-43.147v-86.293ZM1951.607 258.88l74.732 43.146v86.293l-74.732 43.147-74.732-43.147v-86.293ZM375.032 388.319l74.732 43.147v86.293l-74.732 43.146L300.3 517.76v-86.293ZM675.332 388.319l74.732 43.147v86.293l-74.732 43.146L600.6 517.76v-86.293ZM975.632 388.319l74.732 43.147v86.293l-74.732 43.146L900.9 517.76v-86.293ZM1125.782 388.319l74.732 43.147v86.293l-74.732 43.146-74.732-43.146v-86.293ZM1275.932 388.319l74.732 43.147v86.293l-74.732 43.146-74.732-43.146v-86.293ZM1426.082 388.319l74.732 43.147v86.293l-74.732 43.146-74.732-43.146v-86.293ZM1576.232 388.319l74.732 43.147v86.293l-74.732 43.146-74.732-43.146v-86.293ZM1726.382 388.319l74.732 43.147v86.293l-74.732 43.146-74.732-43.146v-86.293ZM1876.532 388.319l74.732 43.147v86.293l-74.732 43.146-74.732-43.146v-86.293ZM149.807 517.759l74.732 43.146v86.293l-74.732 43.147-74.732-43.147v-86.293ZM299.957 517.759l74.732 43.146v86.293l-74.732 43.147-74.732-43.147v-86.293ZM450.107 517.759l74.732 43.146v86.293l-74.732 43.147-74.732-43.147v-86.293ZM750.407 517.759l74.732 43.146v86.293l-74.732 43.147-74.732-43.147v-86.293ZM900.557 517.759l74.732 43.146v86.293l-74.732 43.147-74.732-43.147v-86.293ZM1351.007 517.759l74.732 43.146v86.293l-74.732 43.147-74.732-43.147v-86.293ZM1651.307 517.759l74.732 43.146v86.293l-74.732 43.147-74.732-43.147v-86.293ZM1951.607 517.759l74.732 43.146v86.293l-74.732 43.147-74.732-43.147v-86.293ZM74.732 647.198l74.732 43.147v86.293l-74.732 43.146L0 776.638v-86.293ZM224.882 647.198l74.732 43.147v86.293l-74.732 43.146-74.732-43.146v-86.293ZM375.032 647.198l74.732 43.147v86.293l-74.732 43.146-74.732-43.146v-86.293ZM1125.782 647.198l74.732 43.147v86.293l-74.732 43.146-74.732-43.146v-86.293ZM1275.932 647.198l74.732 43.147v86.293l-74.732 43.146-74.732-43.146v-86.293ZM1726.382 647.198l74.732 43.147v86.293l-74.732 43.146-74.732-43.146v-86.293ZM1876.532 647.198l74.732 43.147v86.293l-74.732 43.146-74.732-43.146v-86.293ZM149.807 776.638l74.732 43.146v86.294l-74.732 43.146-74.732-43.146v-86.294ZM299.957 776.638l74.732 43.146v86.294l-74.732 43.146-74.732-43.146v-86.294ZM1050.707 776.638l74.732 43.146v86.294l-74.732 43.146-74.732-43.146v-86.294ZM1200.857 776.638l74.732 43.146v86.294l-74.732 43.146-74.732-43.146v-86.294ZM1351.007 776.638l74.732 43.146v86.294l-74.732 43.146-74.732-43.146v-86.294ZM1426.082 906.078l74.732 43.146v86.293l-74.732 43.147-74.732-43.147v-86.293ZM2026.682 906.078l74.732 43.146v86.293l-74.732 43.147-74.732-43.147v-86.293ZM450.107 1035.517l74.732 43.147v86.293l-74.732 43.146-74.732-43.146v-86.293ZM600.257 1035.517l74.732 43.147v86.293l-74.732 43.146-74.732-43.146v-86.293ZM750.407 1035.517l74.732 43.147v86.293l-74.732 43.146-74.732-43.146v-86.293ZM1200.857 1035.517l74.732 43.147v86.293l-74.732 43.146-74.732-43.146v-86.293ZM1801.457 1035.517l74.732 43.147v86.293l-74.732 43.146-74.732-43.146v-86.293ZM2101.757 1035.517l74.732 43.147v86.293l-74.732 43.146-74.732-43.146v-86.293ZM74.732 1164.957l74.732 43.146v86.294l-74.732 43.146L0 1294.397v-86.294ZM224.882 1164.957l74.732 43.146v86.294l-74.732 43.146-74.732-43.146v-86.294ZM825.482 1164.957l74.732 43.146v86.294l-74.732 43.146-74.732-43.146v-86.294ZM1275.932 1164.957l74.732 43.146v86.294l-74.732 43.146-74.732-43.146v-86.294ZM1426.082 1164.957l74.732 43.146v86.294l-74.732 43.146-74.732-43.146v-86.294ZM1726.382 1164.957l74.732 43.146v86.294l-74.732 43.146-74.732-43.146v-86.294ZM1876.532 1164.957l74.732 43.146v86.294l-74.732 43.146-74.732-43.146v-86.294ZM2026.682 1164.957l74.732 43.146v86.294l-74.732 43.146-74.732-43.146v-86.294ZM149.807 1294.397l74.732 43.146v86.293l-74.732 43.147-74.732-43.147v-86.293ZM600.257 1294.397l74.732 43.146v86.293l-74.732 43.147-74.732-43.147v-86.293ZM900.557 1294.397l74.732 43.146v86.293l-74.732 43.147-74.732-43.147v-86.293ZM1200.857 1294.397l74.732 43.146v86.293l-74.732 43.147-74.732-43.147v-86.293ZM1351.007 1294.397l74.732 43.146v86.293l-74.732 43.147-74.732-43.147v-86.293ZM1651.307 1294.397l74.732 43.146v86.293l-74.732 43.147-74.732-43.147v-86.293ZM1801.457 1294.397l74.732 43.146v86.293l-74.732 43.147-74.732-43.147v-86.293ZM1951.607 1294.397l74.732 43.146v86.293l-74.732 43.147-74.732-43.147v-86.293ZM375.032 1423.836l74.732 43.147v86.293l-74.732 43.146-74.732-43.146v-86.293ZM975.632 1423.836l74.732 43.147v86.293l-74.732 43.146-74.732-43.146v-86.293ZM1125.782 1423.836l74.732 43.147v86.293l-74.732 43.146-74.732-43.146v-86.293ZM1426.082 1423.836l74.732 43.147v86.293l-74.732 43.146-74.732-43.146v-86.293ZM1576.232 1423.836l74.732 43.147v86.293l-74.732 43.146-74.732-43.146v-86.293ZM600.257 1553.276l74.732 43.146v86.294l-74.732 43.146-74.732-43.146v-86.294ZM900.557 1553.276l74.732 43.146v86.294l-74.732 43.146-74.732-43.146v-86.294ZM1801.457 1553.276l74.732 43.146v86.294l-74.732 43.146-74.732-43.146v-86.294ZM2101.757 1553.276l74.732 43.146v86.294l-74.732 43.146-74.732-43.146v-86.294ZM224.882 1682.716l74.732 43.146v86.293l-74.732 43.147-74.732-43.147v-86.293ZM375.032 1682.716l74.732 43.146v86.293l-74.732 43.147-74.732-43.147v-86.293ZM1426.082 1682.716l74.732 43.146v86.293l-74.732 43.147-74.732-43.147v-86.293ZM1876.532 1682.716l74.732 43.146v86.293l-74.732 43.147-74.732-43.147v-86.293ZM450.107 1812.155l74.732 43.147v86.293l-74.732 43.146-74.732-43.146v-86.293ZM600.257 1812.155l74.732 43.147v86.293l-74.732 43.146-74.732-43.146v-86.293ZM1050.707 1812.155l74.732 43.147v86.293l-74.732 43.146-74.732-43.146v-86.293ZM1801.457 1812.155l74.732 43.147v86.293l-74.732 43.146-74.732-43.146v-86.293ZM1951.607 1812.155l74.732 43.147v86.293l-74.732 43.146-74.732-43.146v-86.293ZM2101.757 1812.155l74.732 43.147v86.293l-74.732 43.146-74.732-43.146v-86.293ZM375.032 1941.595l74.732 43.146v86.293l-74.732 43.147-74.732-43.147v-86.293ZM825.482 1941.595l74.732 43.146v86.293l-74.732 43.147-74.732-43.147v-86.293ZM975.632 1941.595l74.732 43.146v86.293l-74.732 43.147-74.732-43.147v-86.293ZM1125.782 1941.595l74.732 43.146v86.293l-74.732 43.147-74.732-43.147v-86.293ZM1275.932 1941.595l74.732 43.146v86.293l-74.732 43.147-74.732-43.147v-86.293ZM1426.082 1941.595l74.732 43.146v86.293l-74.732 43.147-74.732-43.147v-86.293ZM1576.232 1941.595l74.732 43.146v86.293l-74.732 43.147-74.732-43.147v-86.293ZM1726.382 1941.595l74.732 43.146v86.293l-74.732 43.147-74.732-43.147v-86.293ZM2026.682 1941.595l74.732 43.146v86.293l-74.732 43.147-74.732-43.147v-86.293ZM149.807 2071.034l74.732 43.147v86.293l-74.732 43.147-74.732-43.147v-86.293ZM299.957 2071.034l74.732 43.147v86.293l-74.732 43.147-74.732-43.147v-86.293ZM450.107 2071.034l74.732 43.147v86.293l-74.732 43.147-74.732-43.147v-86.293ZM1050.707 2071.034l74.732 43.147v86.293l-74.732 43.147-74.732-43.147v-86.293ZM1501.157 2071.034l74.732 43.147v86.293l-74.732 43.147-74.732-43.147v-86.293ZM74.732 2200.474l74.732 43.147v86.293l-74.732 43.146L0 2329.914v-86.293ZM224.882 2200.474l74.732 43.147v86.293l-74.732 43.146-74.732-43.146v-86.293ZM375.032 2200.474l74.732 43.147v86.293l-74.732 43.146-74.732-43.146v-86.293ZM675.332 2200.474l74.732 43.147v86.293l-74.732 43.146-74.732-43.146v-86.293ZM975.632 2200.474l74.732 43.147v86.293l-74.732 43.146-74.732-43.146v-86.293ZM1275.932 2200.474l74.732 43.147v86.293l-74.732 43.146-74.732-43.146v-86.293ZM1726.382 2200.474l74.732 43.147v86.293l-74.732 43.146-74.732-43.146v-86.293ZM1876.532 2200.474l74.732 43.147v86.293l-74.732 43.146-74.732-43.146v-86.293ZM2026.682 2200.474l74.732 43.147v86.293l-74.732 43.146-74.732-43.146v-86.293ZM600.257 2329.914l74.732 43.146v86.293l-74.732 43.147-74.732-43.147v-86.293ZM1050.707 2329.914l74.732 43.146v86.293l-74.732 43.147-74.732-43.147v-86.293ZM1200.857 2329.914l74.732 43.146v86.293l-74.732 43.147-74.732-43.147v-86.293ZM1801.457 2329.914l74.732 43.146v86.293l-74.732 43.147-74.732-43.147v-86.293ZM224.882 2459.353l74.732 43.147v86.293l-74.732 43.147-74.732-43.147V2502.5ZM675.332 2459.353l74.732 43.147v86.293l-74.732 43.147-74.732-43.147V2502.5ZM1726.382 2459.353l74.732 43.147v86.293l-74.732 43.147-74.732-43.147V2502.5ZM2026.682 2459.353l74.732 43.147v86.293l-74.732 43.147-74.732-43.147V2502.5ZM299.957 2588.793l74.732 43.147v86.293l-74.732 43.146-74.732-43.146v-86.293ZM600.257 2588.793l74.732 43.147v86.293l-74.732 43.146-74.732-43.146v-86.293ZM750.407 2588.793l74.732 43.147v86.293l-74.732 43.146-74.732-43.146v-86.293ZM900.557 2588.793l74.732 43.147v86.293l-74.732 43.146-74.732-43.146v-86.293ZM1200.857 2588.793l74.732 43.147v86.293l-74.732 43.146-74.732-43.146v-86.293ZM1651.307 2588.793l74.732 43.147v86.293l-74.732 43.146-74.732-43.146v-86.293ZM2101.757 2588.793l74.732 43.147v86.293l-74.732 43.146-74.732-43.146v-86.293ZM74.732 2718.233l74.732 43.146v86.293l-74.732 43.147L0 2847.672v-86.293ZM375.032 2718.233l74.732 43.146v86.293l-74.732 43.147-74.732-43.147v-86.293ZM825.482 2718.233l74.732 43.146v86.293l-74.732 43.147-74.732-43.147v-86.293ZM975.632 2718.233l74.732 43.146v86.293l-74.732 43.147-74.732-43.147v-86.293ZM1275.932 2718.233l74.732 43.146v86.293l-74.732 43.147-74.732-43.147v-86.293ZM1426.082 2718.233l74.732 43.146v86.293l-74.732 43.147-74.732-43.147v-86.293ZM1876.532 2718.233l74.732 43.146v86.293l-74.732 43.147-74.732-43.147v-86.293ZM600.257 2847.672l74.732 43.147v86.293l-74.732 43.147-74.732-43.147v-86.293ZM750.407 2847.672l74.732 43.147v86.293l-74.732 43.147-74.732-43.147v-86.293ZM1050.707 2847.672l74.732 43.147v86.293l-74.732 43.147-74.732-43.147v-86.293ZM1200.857 2847.672l74.732 43.147v86.293l-74.732 43.147-74.732-43.147v-86.293ZM1351.007 2847.672l74.732 43.147v86.293l-74.732 43.147-74.732-43.147v-86.293ZM1501.157 2847.672l74.732 43.147v86.293l-74.732 43.147-74.732-43.147v-86.293ZM2101.757 2847.672l74.732 43.147v86.293l-74.732 43.147-74.732-43.147v-86.293ZM525.182 2977.112l74.732 43.147v86.293l-74.732 43.146-74.732-43.146v-86.293ZM825.482 2977.112l74.732 43.147v86.293l-74.732 43.146-74.732-43.146v-86.293ZM975.632 2977.112l74.732 43.147v86.293l-74.732 43.146-74.732-43.146v-86.293ZM1576.232 2977.112l74.732 43.147v86.293l-74.732 43.146-74.732-43.146v-86.293ZM1726.382 2977.112l74.732 43.147v86.293l-74.732 43.146-74.732-43.146v-86.293ZM750.407 3106.552l74.732 43.146v86.293l-74.732 43.147-74.732-43.147v-86.293ZM1050.707 3106.552l74.732 43.146v86.293l-74.732 43.147-74.732-43.147v-86.293ZM1200.857 3106.552l74.732 43.146v86.293l-74.732 43.147-74.732-43.147v-86.293ZM1351.007 3106.552l74.732 43.146v86.293l-74.732 43.147-74.732-43.147v-86.293ZM1501.157 3106.552l74.732 43.146v86.293l-74.732 43.147-74.732-43.147v-86.293ZM2101.757 3106.552l74.732 43.146v86.293l-74.732 43.147-74.732-43.147v-86.293Z"/></g><defs><radialGradient id="a"><stop offset="0" stop-color="#fff"/><stop offset="1" stop-color="#fff"/></radialGradient></defs></svg>